<svg xmlns="http://www.w3.org/2000/svg" width="191.462" height="64" viewBox="0 0 191.462 64"><g transform="translate(0 0)"><path d="M176.215,0H15.255c-.587,0-1.166,0-1.752,0-.49,0-.976.012-1.47.02A21.143,21.143,0,0,0,8.827.306a10.664,10.664,0,0,0-3.041,1A10.3,10.3,0,0,0,3.2,3.2,10.013,10.013,0,0,0,1.311,5.789a10.562,10.562,0,0,0-1,3.045,20.788,20.788,0,0,0-.287,3.2c-.015.491-.016.983-.024,1.473V50.494c.008.5.009.978.024,1.475a20.788,20.788,0,0,0,.287,3.2,10.54,10.54,0,0,0,1,3.047A9.932,9.932,0,0,0,3.2,60.8a10.039,10.039,0,0,0,2.59,1.886A10.721,10.721,0,0,0,8.827,63.7a21.528,21.528,0,0,0,3.206.283c.495.011.98.017,1.47.017.585,0,1.165,0,1.752,0h160.96c.575,0,1.159,0,1.734,0,.488,0,.988-.006,1.475-.017a21.246,21.246,0,0,0,3.2-.283,10.887,10.887,0,0,0,3.053-1.009,10.044,10.044,0,0,0,2.588-1.886,10.232,10.232,0,0,0,1.891-2.583,10.567,10.567,0,0,0,.991-3.047,21.61,21.61,0,0,0,.3-3.2c.006-.5.006-.978.006-1.475.012-.581.012-1.159.012-1.75V15.258c0-.586,0-1.167-.012-1.747,0-.491,0-.983-.006-1.473a21.612,21.612,0,0,0-.3-3.2,10.589,10.589,0,0,0-.991-3.045,10.346,10.346,0,0,0-4.478-4.48,10.828,10.828,0,0,0-3.053-1,20.87,20.87,0,0,0-3.2-.283c-.488-.008-.988-.017-1.475-.02-.575,0-1.159,0-1.734,0Z" transform="translate(0 0)"/><path d="M12.988,62.075c-.487,0-.963-.006-1.447-.017A20.3,20.3,0,0,1,8.55,61.8,9.414,9.414,0,0,1,5.9,60.92a8.649,8.649,0,0,1-2.235-1.627,8.513,8.513,0,0,1-1.633-2.234,9.155,9.155,0,0,1-.869-2.652,19.861,19.861,0,0,1-.266-3c-.01-.337-.023-1.461-.023-1.461V12.986S.887,11.88.9,11.555a19.792,19.792,0,0,1,.265-3A9.209,9.209,0,0,1,2.031,5.9,8.6,8.6,0,0,1,3.655,3.663,8.9,8.9,0,0,1,5.9,2.027a9.317,9.317,0,0,1,2.645-.87,20.138,20.138,0,0,1,3-.262l1.444-.02H177.418l1.461.02a19.816,19.816,0,0,1,2.973.26,9.5,9.5,0,0,1,2.673.877A8.95,8.95,0,0,1,188.39,5.9a9.22,9.22,0,0,1,.856,2.638,20.794,20.794,0,0,1,.278,3.02c0,.453,0,.94,0,1.424.013.6.013,1.171.013,1.747V48.219c0,.581,0,1.148-.013,1.72,0,.52,0,1-.006,1.488a20.367,20.367,0,0,1-.273,2.966,9.182,9.182,0,0,1-.864,2.672,8.768,8.768,0,0,1-1.625,2.217,8.661,8.661,0,0,1-2.239,1.636,9.379,9.379,0,0,1-2.669.88,20.068,20.068,0,0,1-2.991.261c-.469.011-.959.017-1.436.017l-1.734,0Z" transform="translate(0.524 0.525)" fill="#fff"/><g transform="translate(15.374 12.555)"><path d="M34.229,23.837a8.234,8.234,0,0,1,3.921-6.908,8.428,8.428,0,0,0-6.641-3.59c-2.794-.293-5.5,1.672-6.926,1.672-1.451,0-3.643-1.643-6-1.594a8.844,8.844,0,0,0-7.442,4.539c-3.218,5.571-.818,13.759,2.265,18.262,1.542,2.205,3.345,4.668,5.7,4.581,2.308-.1,3.17-1.472,5.956-1.472,2.76,0,3.569,1.472,5.975,1.416,2.476-.04,4.037-2.215,5.525-4.441a18.239,18.239,0,0,0,2.526-5.145,7.957,7.957,0,0,1-4.857-7.319Z" transform="translate(-9.609 -4.57)"/><path d="M24.182,13.655a8.107,8.107,0,0,0,1.854-5.808A8.248,8.248,0,0,0,20.7,10.608,7.714,7.714,0,0,0,18.8,16.2,6.82,6.82,0,0,0,24.182,13.655Z" transform="translate(-4.107 -7.847)"/><g transform="translate(39.708 16.039)"><path d="M47.027,32.577H39.453l-1.819,5.37H34.427L41.6,18.078h3.333l7.173,19.869H48.844ZM40.238,30.1h6l-2.959-8.716H43.2Z" transform="translate(-34.427 -17.747)"/><path d="M60.276,28.744c0,4.5-2.409,7.394-6.045,7.394A4.911,4.911,0,0,1,49.673,33.6H49.6v7.175H46.631V21.5h2.878V23.91h.055a5.139,5.139,0,0,1,4.612-2.561C57.853,21.349,60.276,24.255,60.276,28.744Zm-3.056,0c0-2.933-1.516-4.861-3.828-4.861-2.272,0-3.8,1.969-3.8,4.861,0,2.919,1.528,4.873,3.8,4.873,2.313,0,3.828-1.914,3.828-4.873Z" transform="translate(-27.104 -15.786)"/><path d="M70.242,28.744c0,4.5-2.41,7.394-6.046,7.394A4.911,4.911,0,0,1,59.638,33.6h-.069v7.175H56.6V21.5h2.878V23.91h.055a5.139,5.139,0,0,1,4.612-2.561C67.818,21.349,70.242,24.255,70.242,28.744Zm-3.057,0c0-2.933-1.516-4.861-3.828-4.861-2.272,0-3.8,1.969-3.8,4.861,0,2.919,1.528,4.873,3.8,4.873C65.669,33.617,67.185,31.7,67.185,28.744Z" transform="translate(-21.126 -15.786)"/><path d="M72.851,32.535c.22,1.97,2.134,3.264,4.75,3.264,2.506,0,4.309-1.294,4.309-3.07,0-1.542-1.087-2.466-3.662-3.1l-2.575-.62c-3.648-.881-5.342-2.587-5.342-5.356,0-3.428,2.987-5.783,7.228-5.783,4.2,0,7.078,2.355,7.175,5.783h-3c-.18-1.983-1.819-3.18-4.214-3.18s-4.034,1.211-4.034,2.973c0,1.4,1.047,2.231,3.608,2.864l2.189.538c4.077.964,5.769,2.6,5.769,5.508,0,3.717-2.959,6.045-7.669,6.045-4.406,0-7.381-2.273-7.573-5.867Z" transform="translate(-13.199 -17.871)"/><path d="M85.256,19.3v3.428h2.755v2.355H85.256v7.986c0,1.241.552,1.819,1.762,1.819A9.293,9.293,0,0,0,88,34.818v2.341a8.166,8.166,0,0,1-1.652.138c-2.933,0-4.077-1.1-4.077-3.911v-8.3H80.163V22.728h2.106V19.3Z" transform="translate(-6.986 -17.014)"/><path d="M86.064,28.753c0-4.558,2.684-7.422,6.87-7.422s6.872,2.864,6.872,7.422-2.658,7.422-6.872,7.422S86.064,33.323,86.064,28.753Zm10.712,0c0-3.127-1.433-4.972-3.842-4.972s-3.842,1.859-3.842,4.972c0,3.139,1.433,4.97,3.842,4.97s3.842-1.831,3.842-4.97Z" transform="translate(-3.445 -15.795)"/><path d="M96.185,21.5h2.836v2.466h.069a3.455,3.455,0,0,1,3.484-2.617,4.586,4.586,0,0,1,1.019.111v2.781a4.157,4.157,0,0,0-1.336-.18,3,3,0,0,0-3.1,3.333v8.592H96.185Z" transform="translate(2.628 -15.786)"/><path d="M114.283,31.74c-.4,2.63-2.961,4.434-6.237,4.434-4.214,0-6.83-2.823-6.83-7.353s2.63-7.491,6.7-7.491c4.008,0,6.528,2.753,6.528,7.145V29.5H104.218v.18a3.773,3.773,0,0,0,3.9,4.1,3.277,3.277,0,0,0,3.345-2.037Zm-10.052-4.323h7.242a3.484,3.484,0,0,0-3.553-3.677,3.667,3.667,0,0,0-3.689,3.677Z" transform="translate(5.647 -15.795)"/></g></g></g><g transform="translate(57.073 13.499)"><path d="M39.119,8.735a4.223,4.223,0,0,1,4.492,4.744c0,3.05-1.648,4.8-4.492,4.8H35.671V8.735Zm-1.966,8.2h1.8A3,3,0,0,0,42.1,13.5a3.01,3.01,0,0,0-3.148-3.414h-1.8Z" transform="translate(-35.671 -8.265)"/><path d="M41.687,13.846a3.413,3.413,0,1,1,6.8,0,3.414,3.414,0,1,1-6.8,0Zm5.333,0c0-1.562-.7-2.475-1.933-2.475s-1.931.913-1.931,2.475.7,2.48,1.931,2.48,1.933-.913,1.933-2.48Z" transform="translate(-32.071 -7.434)"/><path d="M54.576,17.4H53.1l-1.489-5.306H51.5L50.016,17.4H48.555l-1.986-7.2h1.442l1.291,5.5h.106l1.481-5.5h1.364l1.481,5.5h.112l1.284-5.5h1.422Z" transform="translate(-29.132 -7.382)"/><path d="M53.854,10.25h1.369v1.145h.106a2.157,2.157,0,0,1,2.15-1.284,2.343,2.343,0,0,1,2.494,2.68v4.664H58.55V13.147c0-1.158-.5-1.734-1.555-1.734a1.653,1.653,0,0,0-1.72,1.826v4.215H53.854Z" transform="translate(-24.761 -7.437)"/><path d="M59.094,8.437h1.422V18.454H59.094Z" transform="translate(-21.617 -8.437)"/><path d="M61.224,13.846a3.414,3.414,0,1,1,6.8,0,3.414,3.414,0,1,1-6.8,0Zm5.333,0c0-1.562-.7-2.475-1.933-2.475s-1.931.913-1.931,2.475.7,2.48,1.931,2.48,1.933-.913,1.933-2.48Z" transform="translate(-20.349 -7.434)"/><path d="M66.4,15.414c0-1.3.966-2.045,2.68-2.151l1.952-.112v-.622c0-.761-.5-1.191-1.475-1.191-.794,0-1.344.291-1.5.8H66.679c.145-1.237,1.309-2.031,2.944-2.031,1.806,0,2.825.9,2.825,2.421v4.923H71.079V16.439h-.113A2.424,2.424,0,0,1,68.8,17.57a2.176,2.176,0,0,1-2.4-2.156Zm4.631-.616v-.6l-1.759.112c-.992.066-1.442.4-1.442,1.039s.563,1.026,1.336,1.026A1.7,1.7,0,0,0,71.032,14.8Z" transform="translate(-17.233 -7.434)"/><path d="M71.348,14.849c0-2.277,1.17-3.719,2.991-3.719a2.374,2.374,0,0,1,2.209,1.264h.106V8.437h1.422V18.454H76.714V17.316H76.6a2.5,2.5,0,0,1-2.262,1.257C72.506,18.573,71.348,17.131,71.348,14.849Zm1.469,0c0,1.528.72,2.448,1.925,2.448s1.939-.933,1.939-2.441-.748-2.448-1.939-2.448-1.925.926-1.925,2.441Z" transform="translate(-14.265 -8.437)"/><path d="M79.236,13.846a3.413,3.413,0,1,1,6.8,0,3.414,3.414,0,1,1-6.8,0Zm5.333,0c0-1.562-.7-2.475-1.933-2.475s-1.931.913-1.931,2.475.7,2.48,1.931,2.48S84.569,15.414,84.569,13.846Z" transform="translate(-9.542 -7.434)"/><path d="M84.669,10.25h1.369v1.145h.106a2.157,2.157,0,0,1,2.15-1.284,2.343,2.343,0,0,1,2.494,2.68v4.664H89.366V13.147c0-1.158-.5-1.734-1.555-1.734a1.653,1.653,0,0,0-1.72,1.826v4.215H84.669Z" transform="translate(-6.272 -7.437)"/><path d="M94.478,9.074V10.9h1.561v1.2H94.478v3.7c0,.755.311,1.085,1.019,1.085a4.746,4.746,0,0,0,.542-.033v1.184a4.664,4.664,0,0,1-.773.073c-1.581,0-2.211-.556-2.211-1.945V12.1H91.911V10.9h1.144V9.074Z" transform="translate(-1.927 -8.055)"/><path d="M95.7,8.437h1.409v3.97h.113a2.217,2.217,0,0,1,2.2-1.291A2.373,2.373,0,0,1,101.9,13.8v4.652h-1.423v-4.3c0-1.151-.536-1.734-1.541-1.734a1.683,1.683,0,0,0-1.814,1.827v4.208H95.7Z" transform="translate(0.349 -8.437)"/><path d="M107.192,15.506a2.925,2.925,0,0,1-3.122,2.084,3.272,3.272,0,0,1-3.328-3.719,3.323,3.323,0,0,1,3.322-3.764c2,0,3.214,1.37,3.214,3.632v.5H102.19v.08a1.9,1.9,0,0,0,1.919,2.064,1.727,1.727,0,0,0,1.714-.873Zm-5-2.322h3.639a1.738,1.738,0,0,0-1.773-1.866,1.843,1.843,0,0,0-1.866,1.866Z" transform="translate(3.353 -7.435)"/></g></svg>