<svg xmlns="http://www.w3.org/2000/svg" width="126.813" height="44" viewBox="0 0 126.813 44"><path d="M114.722,0C107.1,0,101.071,2.03,99.294,10.349l-.762,3.681h11.111l.762-3.619c.318-1.586,1.142-3.048,2.919-3.048A1.738,1.738,0,0,1,115.1,9.711l-.7,3.048c-.38,1.715-1.586,2.1-3.11,2.6-2.413.824-4.888,1.586-7.365,2.413-5.014,1.715-7.871,3.237-9.016,8.634l-.385,1.808c-.846-2.613-2.731-3.926-5.582-4.665,4-1.142,6.794-4,6.794-8.38,0-8.951-12.146-8.951-18.622-8.951H57.144l2.809-5.4h-11.3L43.7,12.568l-2.413,6.221h-.065l.191-6.221L41.351.824H29.922l.512,5.4h-9.8L11.429,17.9V6.221H0V37.774H11.429V26.345L20.7,37.774H31.564l-1.133,5.4H41.416L43.89,31.68l8.867-17.034v23.13H66.408V27.81h9.078c3.555,0,5.459.509,5.906,4.317l.38,3.048a11.986,11.986,0,0,0,.636,2.6H92.834C92.9,41.483,94.893,44,100.118,44a10.317,10.317,0,0,0,8.76-4,30.8,30.8,0,0,0-.509,3.175H119.8c.38-3.175.953-6.159,1.586-9.269L126.4,10.543C128.372,1.46,123.1,0,114.722,0ZM21.84,21.46l8.985-11.114,2.019,21.336-.574,2.731L21.84,21.463Zm55.806-1.9H66.408V14.6H77.645c1.777,0,4.064.191,4.064,2.475s-2.348,2.475-4.064,2.475Zm32.568,13.268c-.318,1.586-1.46,3.366-3.175,3.366s-1.842-1.586-1.586-2.857l1.842-8.38a2.036,2.036,0,0,1,1.333-1.715l4.064-1.9-2.475,11.491Z"/></svg>