<svg xmlns="http://www.w3.org/2000/svg" width="132.812" height="50" viewBox="0 0 132.812 50">
  <g id="Assets" transform="translate(3 3)">
    <g id="Path_1" data-name="Path 1" fill="#bbef44" stroke-linejoin="round">
      <path d="M 100.1178970336914 45.5 C 97.23520660400391 45.5 95.01284027099609 44.78354644775391 93.51249694824219 43.37052917480469 C 92.41361999511719 42.33559799194336 91.72591400146484 40.9636116027832 91.45913696289062 39.27938079833984 L 82.40651702880859 39.27938079833984 L 81.37606048583984 39.27938079833984 L 81.00637054443359 38.31752777099609 C 80.68242645263672 37.47467422485352 80.44676971435547 36.51599884033203 80.28593444824219 35.38674545288086 L 80.28408050537109 35.37371063232422 L 80.28244018554688 35.36063766479492 L 79.90278625488281 32.31218338012695 L 79.90215301513672 32.30696487426758 L 79.90153503417969 32.3017463684082 C 79.60275268554688 29.75741767883301 78.94242858886719 29.31005477905273 75.48564147949219 29.31005477905273 L 67.90779113769531 29.31005477905273 L 67.90779113769531 37.77656173706055 L 67.90779113769531 39.27656173706055 L 66.40779113769531 39.27656173706055 L 52.75726318359375 39.27656173706055 L 51.25726318359375 39.27656173706055 L 51.25726318359375 37.77656173706055 L 51.25726318359375 20.77619552612305 L 45.31417083740234 32.19304275512695 L 42.8819694519043 43.4862174987793 L 42.62693405151367 44.6703987121582 L 41.41558837890625 44.6703987121582 L 30.43104362487793 44.6703987121582 L 28.58331680297852 44.6703987121582 L 28.96306228637695 42.86211013793945 L 29.71663856506348 39.27374649047852 L 20.69795227050781 39.27374649047852 L 19.9831714630127 39.27374649047852 L 19.53293418884277 38.71860122680664 L 12.92886161804199 30.57573127746582 L 12.92886161804199 37.77374649047852 L 12.92886161804199 39.27374649047852 L 11.42886161804199 39.27374649047852 L 7.065651516313665e-06 39.27374649047852 L -1.499992966651917 39.27374649047852 L -1.499992966651917 37.77374649047852 L -1.499992966651917 6.220636367797852 L -1.499992966651917 4.720636367797852 L 7.065651516313665e-06 4.720636367797852 L 11.42886161804199 4.720636367797852 L 12.92886161804199 4.720636367797852 L 12.92886161804199 6.220636367797852 L 12.92886161804199 13.57516098022461 L 19.4550609588623 5.292309284210205 L 19.90547943115234 4.720636367797852 L 20.63327980041504 4.720636367797852 L 28.78487968444824 4.720636367797852 L 28.42875289916992 0.9656000137329102 L 28.27306175231934 -0.6760181784629822 L 29.92204284667969 -0.6760181784629822 L 41.35091781616211 -0.6760181784629822 L 42.84267807006836 -0.6760181784629822 L 42.85089874267578 0.8157272934913635 L 42.90476608276367 10.59777736663818 L 47.27211761474609 0.2411454617977142 L 47.65887832641602 -0.6760181784629822 L 48.65424346923828 -0.6760181784629822 L 59.95375442504883 -0.6760181784629822 L 62.42571640014648 -0.6760181784629822 L 61.28425979614258 1.516618132591248 L 59.61629867553711 4.720636367797852 L 77.11673736572266 4.720636367797852 C 80.34531402587891 4.720636367797852 85.22440338134766 4.720636367797852 89.27571868896484 5.899254322052002 C 91.63233184814453 6.584854602813721 93.49397277832031 7.609363555908203 94.80889892578125 8.944345474243164 C 96.04872131347656 10.20306491851807 96.81868743896484 11.7326078414917 97.10843658447266 13.50629329681396 L 97.82504272460938 10.04489135742188 L 97.82600402832031 10.04021835327148 L 97.82700347900391 10.03556346893311 C 98.29740905761719 7.833909034729004 99.07784271240234 5.928781986236572 100.1466598510742 4.373145580291748 C 101.1702651977539 2.883272647857666 102.4895706176758 1.666200041770935 104.0679321289062 0.7557091116905212 C 106.7357330322266 -0.7832363843917847 110.1210632324219 -1.5 114.7217559814453 -1.5 C 119.5034942626953 -1.5 124.2644805908203 -1.083036422729492 126.7024993896484 1.941781759262085 C 128.345458984375 3.98016357421875 128.7253570556641 6.897854328155518 127.8638763427734 10.86156368255615 L 122.8523406982422 34.21317291259766 C 122.2725524902344 37.06335830688477 121.6742935180664 40.11687850952148 121.2872085571289 43.35411071777344 L 121.129150390625 44.67601776123047 L 119.7978286743164 44.67601776123047 L 108.3689498901367 44.67601776123047 L 106.6656799316406 44.67601776123047 L 106.7695388793945 43.86101150512695 C 104.9017486572266 44.95989608764648 102.6980285644531 45.5 100.1178970336914 45.5 Z M 106.8982315063477 34.68052673339844 C 106.9279937744141 34.68556976318359 106.9736557006836 34.69047164916992 107.0387496948242 34.69047164916992 C 107.8239898681641 34.69047164916992 108.5347671508789 33.56880187988281 108.7429885864258 32.52958297729492 L 108.9844818115234 31.32425498962402 L 109.0052261352539 31.32425498962402 L 110.5879287719727 23.97542762756348 L 109.2640228271484 24.5956916809082 C 108.9595489501953 24.73761749267578 108.902717590332 24.81505393981934 108.9021682739258 24.81581878662109 C 108.8780059814453 24.85017967224121 108.8334197998047 24.95919990539551 108.7580032348633 25.28257179260254 L 106.9206390380859 33.64189529418945 C 106.8126831054688 34.18651580810547 106.8516464233398 34.54358673095703 106.8982315063477 34.68052673339844 Z M 23.76602935791016 21.46321868896484 L 31.2494010925293 30.75439643859863 L 29.67807006835938 14.15041923522949 L 23.76602935791016 21.46321868896484 Z M 92.71800231933594 23.50398826599121 C 93.1226806640625 23.763916015625 93.51697540283203 24.06528282165527 93.88875579833984 24.41678619384766 C 94.55111694335938 22.36423683166504 95.55850219726562 20.80051040649414 96.99439239501953 19.57241821289062 C 98.6324462890625 18.17143630981445 100.6762466430664 17.3033447265625 103.4429168701172 16.3568172454834 L 103.4482650756836 16.35498237609863 L 103.4536285400391 16.35320091247559 C 104.2924575805664 16.07326889038086 105.1378402709961 15.79848480224609 105.9684066772461 15.53016376495361 L 98.53179168701172 15.53016376495361 L 97.23361968994141 15.53016376495361 C 97.16091156005859 17.83050918579102 96.38643646240234 19.9057788848877 94.98273468017578 21.55070877075195 C 94.34915161132812 22.29317283630371 93.58718109130859 22.94857978820801 92.71800231933594 23.50398826599121 Z M 67.90779113769531 18.05618095397949 L 76.14542388916016 18.05618095397949 L 77.64542388916016 18.05336380004883 C 78.04453277587891 18.05336380004883 79.10468292236328 18.05336380004883 79.74465942382812 17.78727340698242 C 80.10924530029297 17.63567352294922 80.20908355712891 17.48334503173828 80.20908355712891 17.0786190032959 C 80.20908355712891 16.62794494628906 80.07760620117188 16.50001907348633 79.76309967041016 16.36798095703125 C 79.20553588867188 16.13389015197754 78.3385009765625 16.10387229919434 77.64542388916016 16.10387229919434 L 67.90779113769531 16.10387229919434 L 67.90779113769531 18.05618095397949 Z M 113.3240814208984 8.862400054931641 C 113.0289688110352 8.862400054931641 112.2450408935547 8.862400054931641 111.8757553100586 10.70550918579102 L 111.8743133544922 10.71270942687988 L 111.8728103637695 10.71990871429443 L 111.2234649658203 13.80370426177979 C 112.4725341796875 13.37356281280518 112.7788772583008 13.16030120849609 112.9394073486328 12.43492698669434 L 112.9405517578125 12.42972755432129 L 112.9417495727539 12.42452716827393 L 113.6391906738281 9.376072883605957 L 113.6407165527344 9.369400024414062 L 113.6422958374023 9.36274528503418 C 113.7090072631836 9.082908630371094 113.6628036499023 8.944745063781738 113.6478042602539 8.925545692443848 C 113.6347885131836 8.912400245666504 113.5410232543945 8.862400054931641 113.3240814208984 8.862400054931641 Z" stroke="none"/>
      <path d="M 114.7217559814453 0 C 107.1034317016602 0 101.0712127685547 2.030418395996094 99.29389190673828 10.34897994995117 L 98.53179168701172 14.03017997741699 L 109.6428756713867 14.03017997741699 L 110.4049987792969 10.41083908081055 C 110.7227783203125 8.824741363525391 111.5467376708984 7.362400054931641 113.3240737915039 7.362400054931641 C 114.7217559814453 7.362400054931641 115.4191741943359 8.377601623535156 115.1013946533203 9.710601806640625 L 114.4039764404297 12.75904083251953 C 114.0243148803711 14.47450065612793 112.81787109375 14.85416030883789 111.2936553955078 15.3631591796875 C 108.8807754516602 16.1871395111084 106.4060134887695 16.94926071166992 103.9284515380859 17.77603912353516 C 98.91425323486328 19.49150085449219 96.05703735351562 21.01292037963867 94.9124755859375 26.40955924987793 L 94.52719116210938 28.21781921386719 C 93.68070983886719 25.60527992248535 91.79653930664062 24.29195976257324 88.94493103027344 23.55236053466797 C 92.94390869140625 22.41057968139648 95.7392578125 19.55337905883789 95.7392578125 15.17193984985352 C 95.7392578125 6.220638275146484 83.59327697753906 6.220638275146484 77.11672973632812 6.220638275146484 L 57.14433288574219 6.220638275146484 L 59.95375061035156 0.8239784240722656 L 48.65425109863281 0.8239784240722656 L 43.70191192626953 12.56781959533691 L 41.28903198242188 18.7884407043457 L 41.22435760498047 18.7884407043457 L 41.41559600830078 12.56781959533691 L 41.35091400146484 0.8239784240722656 L 29.92203521728516 0.8239784240722656 L 30.43387603759766 6.220638275146484 L 20.63327789306641 6.220638275146484 L 11.42885589599609 17.9025993347168 L 11.42885589599609 6.220638275146484 L 0 6.220638275146484 L 0 37.77373886108398 L 11.42885589599609 37.77373886108398 L 11.42885589599609 26.34487915039062 L 20.69793701171875 37.77373886108398 L 31.56437683105469 37.77373886108398 L 30.43103790283203 43.1703987121582 L 41.41557312011719 43.1703987121582 L 43.89033508300781 31.67966079711914 L 52.75725555419922 14.64603996276855 L 52.75725555419922 37.77655792236328 L 66.40779113769531 37.77655792236328 L 66.40779113769531 27.81003952026367 L 75.48563385009766 27.81003952026367 C 79.04029846191406 27.81003952026367 80.94415283203125 28.31906127929688 81.39129638671875 32.12680053710938 L 81.77095031738281 35.17525863647461 C 81.89751434326172 36.06391906738281 82.08872985839844 36.95257949829102 82.40650939941406 37.77938079833984 L 92.83423614501953 37.77938079833984 C 92.89893341064453 41.48305892944336 94.89279174804688 44 100.1178970336914 44 C 103.7372131347656 44 106.6562957763672 42.85823822021484 108.8779525756836 40.00101852416992 C 108.6248550415039 41.0809211730957 108.498291015625 42.16080093383789 108.3689575195312 43.17602157592773 L 119.7978134155273 43.17602157592773 C 120.1774749755859 40.00101852416992 120.7511749267578 37.01726150512695 121.3839111328125 33.90694046020508 L 126.3980941772461 10.54299926757812 C 128.3722686767578 1.459541320800781 123.1021575927734 0 114.7217559814453 0 M 32.27023315429688 34.41313934326172 L 21.83969116210938 21.46006011962891 L 30.82475280761719 10.34616088867188 L 32.84393310546875 31.68247985839844 L 32.27023315429688 34.41313934326172 M 77.64541625976562 19.55617904663086 L 66.40779113769531 19.55617904663086 L 66.40779113769531 14.60386085510254 L 77.64541625976562 14.60386085510254 C 79.4227294921875 14.60386085510254 81.70907592773438 14.79509925842285 81.70907592773438 17.07862091064453 C 81.70907592773438 19.36214065551758 79.36087036132812 19.55337905883789 77.64541625976562 19.55337905883789 L 77.64541625976562 19.55617904663086 M 110.216552734375 32.82424163818359 L 110.213752746582 32.82424163818359 C 109.8959503173828 34.41033935546875 108.7542114257812 36.19047927856445 107.0387573242188 36.19047927856445 C 105.3232955932617 36.19047927856445 105.1967544555664 34.60437774658203 105.4526519775391 33.33325958251953 L 107.2946548461914 24.95284080505371 C 107.4858703613281 24.12886047363281 107.6742935180664 23.68172073364258 108.6276321411133 23.23737907409668 L 112.6913146972656 21.33349990844727 L 110.216552734375 32.82424163818359 M 114.7217559814453 -3 C 119.8761901855469 -3 125.0365905761719 -2.515361785888672 127.8703765869141 1.000461578369141 C 129.8152618408203 3.4134521484375 130.2932281494141 6.740589141845703 129.3313140869141 11.17250061035156 L 129.3313140869141 11.17250061035156 L 124.3202133178711 34.5220832824707 C 123.7472381591797 37.33908081054688 123.1565475463867 40.35473251342773 122.7765960693359 43.53221893310547 C 122.5962371826172 45.04056167602539 121.31689453125 46.17602157592773 119.7978134155273 46.17602157592773 L 108.3689575195312 46.17602157592773 C 107.7445449829102 46.17602157592773 107.1419448852539 45.9814338684082 106.6407318115234 45.62822341918945 C 106.50537109375 45.69380187988281 106.3685760498047 45.75702285766602 106.2306365966797 45.81774139404297 C 104.4232788085938 46.61328125 102.4237747192383 47 100.1178970336914 47 C 96.84029388427734 47 94.27191162109375 46.14625930786133 92.48409271240234 44.46250152587891 C 91.42737579345703 43.46728134155273 90.68327331542969 42.23472595214844 90.25760650634766 40.77938079833984 L 82.40650939941406 40.77938079833984 C 81.16495513916016 40.77938079833984 80.05165100097656 40.01457977294922 79.60623168945312 38.85565948486328 C 79.24127197265625 37.9061393737793 78.97785949707031 36.84062194824219 78.80091857910156 35.59823989868164 C 78.79845428466797 35.58086013793945 78.79611206054688 35.56343841552734 78.79395294189453 35.5460205078125 L 78.41429138183594 32.49755859375 C 78.41343688964844 32.4906005859375 78.41259765625 32.48363876342773 78.41177368164062 32.47668075561523 C 78.29244995117188 31.46072006225586 78.07437133789062 31.12199974060059 78.02677917480469 31.09257888793945 C 77.81817626953125 30.96368026733398 77.20799255371094 30.81003952026367 75.48563385009766 30.81003952026367 L 69.40779113769531 30.81003952026367 L 69.40779113769531 37.77655792236328 C 69.40779113769531 39.43341827392578 68.06465148925781 40.77656173706055 66.40779113769531 40.77656173706055 L 52.75725555419922 40.77656173706055 C 51.10039520263672 40.77656173706055 49.75725555419922 39.43341827392578 49.75725555419922 37.77655792236328 L 49.75725555419922 26.90628814697266 L 46.73800659179688 32.70635223388672 L 44.34833526611328 43.80202102661133 C 44.05073547363281 45.18379974365234 42.82901763916016 46.1703987121582 41.41557312011719 46.1703987121582 L 30.43103790283203 46.1703987121582 C 29.52721405029297 46.1703987121582 28.67155456542969 45.76292037963867 28.10189056396484 45.06119918823242 C 27.53225708007812 44.35950088500977 27.30931091308594 43.43835830688477 27.49507141113281 42.5538215637207 L 27.86890411376953 40.77373886108398 L 20.69793701171875 40.77373886108398 C 19.79361724853516 40.77373886108398 18.93753814697266 40.36579895019531 18.36791229248047 39.6634407043457 L 14.42885589599609 34.80654144287109 L 14.42885589599609 37.77373886108398 C 14.42885589599609 39.43059921264648 13.08571624755859 40.77373886108398 11.42885589599609 40.77373886108398 L 0 40.77373886108398 C -1.6568603515625 40.77373886108398 -3 39.43059921264648 -3 37.77373886108398 L -3 6.220638275146484 C -3 4.56378173828125 -1.6568603515625 3.220638275146484 0 3.220638275146484 L 11.42885589599609 3.220638275146484 C 13.08571624755859 3.220638275146484 14.42885589599609 4.56378173828125 14.42885589599609 6.220638275146484 L 14.42885589599609 9.247695922851562 L 18.27683258056641 4.363960266113281 C 18.84569549560547 3.641998291015625 19.714111328125 3.220638275146484 20.63327789306641 3.220638275146484 L 27.13587951660156 3.220638275146484 L 26.93543243408203 1.10723876953125 C 26.85565185546875 0.2661018371582031 27.13427734375 -0.5696983337402344 27.70283508300781 -1.194721221923828 C 28.27137756347656 -1.819721221923828 29.07711791992188 -2.176021575927734 29.92203521728516 -2.176021575927734 L 41.35091400146484 -2.176021575927734 C 43.00131225585938 -2.176021575927734 44.34177398681641 -0.8429183959960938 44.35087585449219 0.8074607849121094 L 44.36447143554688 3.275886535644531 L 45.88999176025391 -0.3417015075683594 C 46.35875701904297 -1.453338623046875 47.44781494140625 -2.176021575927734 48.65425109863281 -2.176021575927734 L 59.95375061035156 -2.176021575927734 C 61.00221252441406 -2.176021575927734 61.97459411621094 -1.628658294677734 62.51849365234375 -0.7323188781738281 C 63.06241607666016 0.1640205383300781 63.09889221191406 1.279281616210938 62.61477661132812 2.209259033203125 L 62.08826446533203 3.220638275146484 L 77.11672973632812 3.220638275146484 C 80.43043518066406 3.220638275146484 85.43815612792969 3.220638275146484 89.69473266601562 4.458980560302734 C 92.30039978027344 5.217018127441406 94.38059997558594 6.371978759765625 95.87755584716797 7.891761779785156 C 96.136474609375 8.154624938964844 96.37796020507812 8.427150726318359 96.60199737548828 8.709232330322266 C 97.71859741210938 4.495189666748047 99.97474670410156 1.385223388671875 103.3184127807617 -0.5435981750488281 C 106.2235717773438 -2.219459533691406 109.847053527832 -3 114.7217559814453 -3 Z M 29.28565979003906 25.92494773864746 L 28.53138732910156 17.95468902587891 L 25.69347381591797 21.46499252319336 L 29.28565979003906 25.92494773864746 Z" stroke="none" fill="#000"/>
    </g>
  </g>
</svg>
